REM DIRINDEX 1\4,1\2\5,1\2\6,1\3\7,1\3\8
REM DIRNAME folder01,folder02,folder03,folder04,folder05,folder06,folder07,folder08
TITLE ""
FILE "006_Day03_Check3_Sentences.mp3" MP3
  TRACK 01 AUDIO
    TITLE "0:"
    INDEX 01 00:00:00
  TRACK 02 AUDIO
    TITLE "4:cjc124_0166"
    INDEX 01 00:00:25
  TRACK 03 AUDIO
    TITLE "0:"
    INDEX 01 00:01:52
  TRACK 04 AUDIO
    TITLE "7:cjc124_0167"
    INDEX 01 00:02:18
  TRACK 05 AUDIO
    TITLE "0:"
    INDEX 01 00:04:36
  TRACK 06 AUDIO
    TITLE "8:cjc124_0168"
    INDEX 01 00:04:52
  TRACK 07 AUDIO
    TITLE "0:"
    INDEX 01 00:06:55
  TRACK 08 AUDIO
    TITLE "7:cjc124_0169"
    INDEX 01 00:07:19
  TRACK 09 AUDIO
    TITLE "0:"
    INDEX 01 00:08:62
  TRACK 10 AUDIO
    TITLE "8:cjc124_0170"
    INDEX 01 00:09:06
  TRACK 11 AUDIO
    TITLE "0:"
    INDEX 01 00:10:66
  TRACK 12 AUDIO
    TITLE "7:cjc124_0171"
    INDEX 01 00:11:29
  TRACK 13 AUDIO
    TITLE "0:"
    INDEX 01 00:13:00
  TRACK 14 AUDIO
    TITLE "8:cjc124_0172"
    INDEX 01 00:13:18
  TRACK 15 AUDIO
    TITLE "0:"
    INDEX 01 00:15:21
  TRACK 16 AUDIO
    TITLE "7:cjc124_0173"
    INDEX 01 00:15:62
  TRACK 17 AUDIO
    TITLE "0:"
    INDEX 01 00:17:55
  TRACK 18 AUDIO
    TITLE "8:cjc124_0174"
    INDEX 01 00:17:74
  TRACK 19 AUDIO
    TITLE "0:"
    INDEX 01 00:20:26
  TRACK 20 AUDIO
    TITLE "7:cjc124_0175"
    INDEX 01 00:20:67
  TRACK 21 AUDIO
    TITLE "0:"
    INDEX 01 00:23:61
  TRACK 22 AUDIO
    TITLE "8:cjc124_0176"
    INDEX 01 00:24:04
  TRACK 23 AUDIO
    TITLE "0:"
    INDEX 01 00:26:54
  TRACK 24 AUDIO
    TITLE "7:cjc124_0177"
    INDEX 01 00:27:24
  TRACK 25 AUDIO
    TITLE "0:"
    INDEX 01 00:29:46
  TRACK 26 AUDIO
    TITLE "8:cjc124_0178"
    INDEX 01 00:29:66
  TRACK 27 AUDIO
    TITLE "0:"
    INDEX 01 00:32:27
  TRACK 28 AUDIO
    TITLE "7:cjc124_0179"
    INDEX 01 00:32:66
  TRACK 29 AUDIO
    TITLE "0:"
    INDEX 01 00:34:67
  TRACK 30 AUDIO
    TITLE "8:cjc124_0180"
    INDEX 01 00:35:12
  TRACK 31 AUDIO
    TITLE "0:"
    INDEX 01 00:37:63
  TRACK 32 AUDIO
    TITLE "7:cjc124_0181"
    INDEX 01 00:38:28
  TRACK 33 AUDIO
    TITLE "0:"
    INDEX 01 00:40:64
  TRACK 34 AUDIO
    TITLE "8:cjc124_0182"
    INDEX 01 00:41:08
  TRACK 35 AUDIO
    TITLE "0:"
    INDEX 01 00:43:44
  TRACK 36 AUDIO
    TITLE "7:cjc124_0183"
    INDEX 01 00:44:11
  TRACK 37 AUDIO
    TITLE "0:"
    INDEX 01 00:46:62
  TRACK 38 AUDIO
    TITLE "8:cjc124_0184"
    INDEX 01 00:47:13
  TRACK 39 AUDIO
    TITLE "0:"
    INDEX 01 00:49:63
  TRACK 40 AUDIO
    TITLE "7:cjc124_0185"
    INDEX 01 00:50:27
  TRACK 41 AUDIO
    TITLE "0:"
    INDEX 01 00:52:26
  TRACK 42 AUDIO
    TITLE "8:cjc124_0186"
    INDEX 01 00:52:47
  TRACK 43 AUDIO
    TITLE "0:"
    INDEX 01 00:55:30
  TRACK 44 AUDIO
    TITLE "7:cjc124_0187"
    INDEX 01 00:56:00
  TRACK 45 AUDIO
    TITLE "0:"
    INDEX 01 00:59:16
  TRACK 46 AUDIO
    TITLE "8:cjc124_0188"
    INDEX 01 00:59:47
  TRACK 47 AUDIO
    TITLE "0:"
    INDEX 01 01:02:61
  TRACK 48 AUDIO
    TITLE "7:cjc124_0189"
    INDEX 01 01:03:24
  TRACK 49 AUDIO
    TITLE "0:"
    INDEX 01 01:06:57
  TRACK 50 AUDIO
    TITLE "8:cjc124_0190"
    INDEX 01 01:07:00
  TRACK 51 AUDIO
    TITLE "0:"
    INDEX 01 01:10:04
  TRACK 52 AUDIO
    TITLE "7:cjc124_0191"
    INDEX 01 01:10:43
  TRACK 53 AUDIO
    TITLE "0:"
    INDEX 01 01:12:68
  TRACK 54 AUDIO
    TITLE "8:cjc124_0192"
    INDEX 01 01:13:12
  TRACK 55 AUDIO
    TITLE "0:"
    INDEX 01 01:15:68
  TRACK 56 AUDIO
    TITLE "7:cjc124_0193"
    INDEX 01 01:16:32
  TRACK 57 AUDIO
    TITLE "0:"
    INDEX 01 01:18:11
  TRACK 58 AUDIO
    TITLE "8:cjc124_0194"
    INDEX 01 01:18:35
  TRACK 59 AUDIO
    TITLE "0:"
    INDEX 01 01:20:59
  TRACK 60 AUDIO
    TITLE "7:cjc124_0195"
    INDEX 01 01:21:21
  TRACK 61 AUDIO
    TITLE "0:"
    INDEX 01 01:23:71
  TRACK 62 AUDIO
    TITLE "8:cjc124_0196"
    INDEX 01 01:24:14
  TRACK 63 AUDIO
    TITLE "0:"
    INDEX 01 01:27:55
  TRACK 64 AUDIO
    TITLE "7:cjc124_0197"
    INDEX 01 01:28:24
  TRACK 65 AUDIO
    TITLE "0:"
    INDEX 01 01:30:56
  TRACK 66 AUDIO
    TITLE "8:cjc124_0198"
    INDEX 01 01:31:08
  TRACK 67 AUDIO
    TITLE "0:"
    INDEX 01 01:33:46
